<?xml version="1.0" encoding="utf-8"?><svg viewBox="0 0 31.364 34.634" xmlns="http://www.w3.org/2000/svg" xmlns:xlink="http://www.w3.org/1999/xlink"><style>:root>svg{display:none}:root>svg:target{display:block}</style><svg viewBox="0 0 31.162 33.2" id="analyse" xmlns="http://www.w3.org/2000/svg"><g data-name="Сгруппировать 13" fill="#4faaed"><path data-name="Контур 1309" d="M18.956 0c1.107.561 2.21 1.131 3.324 1.678.286.141.388.259.214.578-.4.729-.76 1.478-1.129 2.223-.095.191-.2.206-.386.121-.681-.316-.683-.31-1.017.353-.141.28-.271.565-.428.836-.119.2-.066.311.139.392.14.056.267.143.407.2.218.087.222.211.126.405-.26.529-.247.517.315.719a10.736 10.736 0 017.221 7.843 10.583 10.583 0 01-1.348 8.306.533.533 0 00.016.725 8.02 8.02 0 011.624 4.2.4.4 0 00.3.39 4.317 4.317 0 012.794 3.309 3 3 0 01.035.386c.013.183-.056.29-.257.279-.125-.007-.236.013-.279.161-.026.088-.113.09-.188.093H.567c-.568 0-.6 0-.548-.565a4.163 4.163 0 012.638-3.59 4.1 4.1 0 011.641-.307c1.174-.016 2.349-.009 3.522-.009 1.076 0 2.155-.04 3.23.024.28.017.376-.085.4-.356a7.063 7.063 0 01.467-1.945c.091-.23-.009-.251-.2-.251H7.959c-.972 0-1.944-.007-2.915.005-.28 0-.376-.086-.373-.372q.02-1.733 0-3.466c0-.29.1-.369.377-.366 1.152.011 2.3.008 3.455 0s2.283-.029 3.425-.028 2.283.017 3.425.034a1.366 1.366 0 00.649-.153 8.057 8.057 0 014.255-.882.52.52 0 00.506-.2 4.634 4.634 0 00-3.018-7.472c-.956-.124-.742-.137-1.153.645-.276.526-.524 1.066-.8 1.591-.1.193-.055.278.128.373.666.344.662.35.323 1.027-.31.617-.625 1.233-.925 1.855-.105.218-.209.275-.446.156q-2.96-1.5-5.932-2.981c-.237-.118-.311-.234-.171-.5.391-.734.758-1.48 1.122-2.227.105-.217.2-.283.444-.166.647.316.652.3.985-.357q2.083-4.136 4.162-8.275c.123-.245.232-.278.467-.152.591.315.6.307.919-.29.168-.314.318-.638.487-.951.085-.158.07-.263-.107-.326a.228.228 0 01-.029-.014c-.674-.355-.677-.357-.342-1.032.278-.561.564-1.118.846-1.676zm-3.367 29.83c-2.861 0-5.721-.009-8.582 0a29.436 29.436 0 00-3.364.057 2.986 2.986 0 00-2.44 2.217c-.045.206-.011.263.209.258.947-.022 1.894-.011 2.841-.013 1.27 0 2.54.006 3.811 0h1.518c.722.006 1.443.018 2.165.006.549-.009 1.1.013 1.647-.007.709-.026 1.421.029 2.132.014 1-.021 2-.006 3-.014 1.259-.01 2.519 0 3.778 0h1.518c.722 0 1.443.009 2.165.012h1.807c.657 0 1.314.006 1.971.008.183 0 .25-.077.2-.266a2.993 2.993 0 00-.507-1.076 3.041 3.041 0 00-2.569-1.2q-5.649-.004-11.3.004zm4.127-1.123h1.295c1.845 0 3.691 0 5.536.007.28 0 .4-.081.356-.374a7.07 7.07 0 00-1.084-2.987 7.245 7.245 0 00-13.257 2.984c-.032.289.068.375.354.374 2.268-.009 4.534-.005 6.8-.004zm3.148-10.945a5.933 5.933 0 01-.893 3.214c-.123.205-.077.268.13.331a8.225 8.225 0 013.045 1.667c.2.176.293.145.424-.08a9.255 9.255 0 001.263-6.406 9.611 9.611 0 00-7.083-8.063.357.357 0 00-.505.227c-.474.97-.965 1.932-1.45 2.9-.285.568-.285.568.338.684a5.712 5.712 0 014.731 5.526zM18.787 7.094c-.018-.146-.136-.171-.228-.218-.7-.355-1.417-.691-2.108-1.068-.275-.15-.373-.089-.5.169q-1.916 3.839-3.857 7.665c-.111.218-.052.294.138.387.708.347 1.415.7 2.109 1.067.263.141.384.1.518-.167q1.9-3.809 3.827-7.608c.036-.078.069-.158.101-.227zm-4.729 16.027a.674.674 0 00-.343-.028H6.112c-.173 0-.359-.028-.356.244.006.518 0 1.035 0 1.553 0 .139.041.245.2.224.442-.06.882.044 1.323 0 .558-.052 1.118 0 1.677-.016 1.107-.027 2.216.008 3.323.023a.382.382 0 00.368-.205 8.224 8.224 0 011.313-1.635c.045-.043.115-.075.098-.161zm-3.461-8.641c-.182.115-.215.332-.326.5-.164.242-.088.367.164.49 1.23.6 2.453 1.221 3.677 1.836.656.33.508.365.87-.307.1-.177.09-.272-.113-.373-1.342-.667-2.677-1.348-4.014-2.024-.08-.044-.157-.076-.258-.122zm7.488-12.7c.024.147.136.178.229.225q.924.468 1.85.932c.657.33.688.313.92-.392a.181.181 0 00-.1-.259l-2.372-1.188c-.057-.029-.13-.073-.172 0-.129.225-.242.457-.355.678zm1.159 2.1c.019-.132-.064-.17-.14-.209-.143-.075-.294-.135-.431-.219-.157-.1-.249-.065-.326.1-.15.321-.31.638-.47.954-.329.649-.327.64.354.942.169.075.226.024.293-.113.213-.434.433-.865.65-1.3.029-.064.053-.123.071-.164z"/><path data-name="Контур 1310" d="M19.758 23.046a1.577 1.577 0 11-1.6 1.577 1.625 1.625 0 011.6-1.577zm-.038 2.034c.33.005.49-.137.5-.449a.489.489 0 00-.977-.03.427.427 0 00.477.477z"/></g></svg><svg viewBox="0 0 21.409 18.935" id="cart-icon" xmlns="http://www.w3.org/2000/svg"><g data-name="Сгруппировать 3"><path data-name="Контур 1303" d="M13.177 12.183H7.688c-.284 0-.287 0-.22.28.119.491.252.98.36 1.474a.26.26 0 00.306.247q4.081-.009 8.161 0h1.858a.692.692 0 110 1.379H7.482a.722.722 0 01-.838-.666Q5.66 10.91 4.68 6.921q-.652-2.649-1.3-5.3a.265.265 0 00-.311-.243c-.8.011-1.6.008-2.4 0a.672.672 0 01-.667-.6.68.68 0 01.5-.752A.987.987 0 01.73.005h3.047a.681.681 0 01.762.6c.153.606.311 1.211.446 1.821.048.218.13.291.359.29q7.639-.01 15.278-.007a.767.767 0 01.53.147.7.7 0 01.224.762l-.919 3.721-1.053 4.252a.693.693 0 01-.761.6zm-6.464-8.1c-.362 0-.724.007-1.086 0-.171 0-.22.039-.174.217.194.754.38 1.512.562 2.269a.21.21 0 00.244.191c.612-.007 1.225-.01 1.837 0 .2 0 .236-.082.213-.254-.1-.745-.2-1.49-.282-2.236-.017-.146-.07-.191-.208-.188-.369.003-.738-.001-1.106-.001zm11.822 0h-1.106c-.14 0-.2.043-.207.19s-.037.292-.055.439c-.075.6-.148 1.2-.227 1.8-.023.175.017.255.215.252a59.271 59.271 0 011.838 0 .21.21 0 00.241-.194c.184-.764.371-1.528.567-2.29.043-.167-.015-.195-.159-.192-.369-.003-.738-.006-1.107-.007zm-6.593 1.344c0-.372-.007-.745 0-1.117.005-.172-.047-.233-.223-.231-.7.009-1.391.011-2.085 0-.2 0-.235.082-.212.254.1.751.2 1.5.283 2.255.017.144.082.169.2.168.612 0 1.224-.006 1.835 0 .161 0 .2-.064.2-.213-.003-.373.002-.745.002-1.118zm1.365-.017v1.159c0 .115.022.187.159.186h1.918c.089 0 .141-.029.153-.129q.142-1.169.292-2.338c.021-.161-.045-.207-.2-.206-.7.006-1.4.008-2.106 0-.181 0-.223.069-.219.235.01.361.003.726.003 1.091zM7.472 8.134c-.286 0-.571.007-.856 0-.168-.006-.2.048-.161.209q.288 1.133.56 2.27a.219.219 0 00.26.2c.432-.008.863 0 1.295 0 .246 0 .268-.023.238-.264-.093-.745-.193-1.49-.28-2.236-.016-.139-.073-.176-.2-.174-.285-.003-.571-.007-.856-.007zm10.308 0c-.271 0-.543.007-.813 0-.158-.006-.25.026-.25.212a3.38 3.38 0 01-.051.417c-.075.6-.149 1.2-.227 1.8-.023.174.017.259.216.253.445-.013.89-.008 1.335 0a.2.2 0 00.233-.179q.282-1.166.579-2.329c.039-.152-.026-.167-.144-.166-.293-.008-.585-.01-.878-.01zm-5.838 1.357c0-.372-.008-.745 0-1.117.006-.179-.042-.249-.232-.244a32.62 32.62 0 01-1.564 0c-.212-.006-.249.082-.225.263.1.744.193 1.489.282 2.234.016.131.058.183.192.181q.678-.009 1.355 0c.149 0 .192-.058.19-.2-.002-.374.002-.747.002-1.119zm1.366-.031v1.159c0 .115.021.188.157.187h1.418c.089 0 .141-.028.153-.128q.141-1.17.291-2.338c.02-.16-.043-.21-.2-.208q-.813.01-1.627 0c-.161 0-.2.063-.2.213.012.369.007.741.008 1.113z"/><path data-name="Контур 1304" d="M8.521 18.935a1.365 1.365 0 111.363-1.37 1.338 1.338 0 01-1.363 1.37z"/><path data-name="Контур 1305" d="M16.731 16.202a1.365 1.365 0 11-1.365 1.364 1.345 1.345 0 011.365-1.364z"/></g></svg><svg viewBox="0 0 31.364 31.881" id="center" xmlns="http://www.w3.org/2000/svg"><g data-name="Сгруппировать 14" fill="#4faaed"><path data-name="Контур 1311" d="M15.675 31.881H.475c-.476 0-.477 0-.477-.487v-14.8c0-.4.009-.409.428-.409h7.4c.518 0 .521 0 .521-.508v-4.761c0-.476 0-.474.462-.474h4.989c.244 0 .377-.04.3-.322a.564.564 0 010-.259c.061-.294.025-.48-.352-.436-.189.022-.172-.158-.172-.285 0-.652-.011-1.3 0-1.956.006-.265-.079-.366-.353-.36-.641.015-1.283 0-1.924.009-.252 0-.344-.077-.342-.336q.014-1.777 0-3.554c0-.26.1-.34.347-.336.641.012 1.283-.006 1.924.011.276.007.356-.092.35-.358-.016-.641 0-1.283-.011-1.924-.005-.258.093-.341.344-.339 1.185.009 2.37.012 3.554 0 .268 0 .332.108.328.35-.011.63.008 1.261-.008 1.891-.007.28.076.387.368.379.641-.018 1.283 0 1.924-.009.236 0 .327.074.326.318q-.011 1.793 0 3.587c0 .242-.094.324-.328.32-.652-.01-1.3.005-1.956-.01-.26-.006-.34.086-.334.34.015.63 0 1.261.011 1.891.005.264-.052.425-.357.388-.15-.018-.219.036-.188.207a1.042 1.042 0 01.008.421c-.078.32.052.377.345.374 1.663-.012 3.326 0 4.989-.012.333 0 .424.1.421.426-.014 1.652 0 3.3-.012 4.956 0 .288.084.372.37.371 2.522-.01 5.043 0 7.565-.012.322 0 .429.082.428.42q-.016 7.4-.009 14.8c0 .479 0 .48-.484.48zM9.438 21.163v3.032c0 2.065.009 4.13-.006 6.195 0 .341.109.443.43.41a3.692 3.692 0 01.716 0c.3.029.389-.078.388-.382-.012-2.163-.006-4.326-.006-6.489 0-.436 0-.44.43-.44h3.652c1.663 0 3.326.007 4.989 0 .288 0 .386.09.371.375-.02.368 0 .739 0 1.108 0 1.826 0 3.652-.006 5.478 0 .267.077.375.352.354.248-.02.5 0 .75 0 .426 0 .427 0 .427-.433v-18.39c0-.443 0-.444-.454-.444q-5.82 0-11.64-.005c-.29 0-.4.069-.395.38.006 3.078.001 6.165.002 9.251zm13.567 2.834v6.421c0 .232.009.385.322.384q3.276-.019 6.551 0c.322 0 .4-.109.4-.413q-.013-6.372 0-12.744c0-.308-.1-.383-.392-.381q-3.243.016-6.486 0c-.324 0-.4.108-.4.412.014 2.106.005 4.213.005 6.321zm-21.918.035c0 2.119.005 4.237-.006 6.356 0 .3.068.415.394.413q3.275-.02 6.551 0c.266 0 .328-.095.327-.343q-.008-6.388 0-12.777c0-.338-.108-.419-.43-.417q-3.227.019-6.453 0c-.327 0-.4.112-.394.414.017 2.117.012 4.235.011 6.354zM16.702 2.405c0-.337-.009-.674 0-1.011.008-.227-.084-.308-.307-.3-.467.01-.935.017-1.4 0-.284-.012-.351.105-.344.364.016.521.011 1.043.005 1.565-.008.775.087.678-.672.687-.543.006-1.087.006-1.63 0-.217 0-.318.059-.312.294q.019.717 0 1.435c-.006.24.081.327.322.323.652-.011 1.3.006 1.956-.008.257-.005.343.085.338.34-.013.652 0 1.3-.008 1.956 0 .242.086.327.325.32.467-.012.935-.017 1.4 0 .272.011.333-.1.327-.347a47.387 47.387 0 01-.005-1.6c.008-.755-.08-.662.656-.671a63.262 63.262 0 011.63 0c.232.005.337-.06.329-.311q-.023-.7 0-1.4c.008-.255-.083-.345-.339-.34-.652.013-1.3 0-1.956.007-.24 0-.331-.083-.321-.323.018-.329.006-.655.006-.98zm-.479 25.287v2.8c0 .22.065.311.3.309q1.254-.014 2.508 0c.239 0 .291-.1.291-.315a795.227 795.227 0 010-5.569c0-.282-.11-.349-.367-.345a69.76 69.76 0 01-2.377 0c-.269 0-.358.076-.354.35.009.922-.001 1.845-.001 2.768zm-1.088.009c0-.934-.005-1.867 0-2.8 0-.232-.062-.331-.312-.327-.825.012-1.65.01-2.475 0-.222 0-.308.068-.307.3q.011 2.8 0 5.6c0 .27.1.33.345.327.8-.011 1.607-.015 2.41 0 .286.006.344-.111.341-.366-.008-.911-.001-1.823-.001-2.736zm.552-17.263a.472.472 0 00.485-.493.494.494 0 10-.485.493z"/><path data-name="Контур 1312" d="M15.712 17.79c-1.62 0-3.239-.009-4.859.007-.335 0-.432-.1-.42-.427.028-.756-.071-.663.664-.664 3.142 0 6.283 0 9.425-.01.322 0 .411.107.4.413-.024.78.081.676-.679.679-1.507.006-3.02.002-4.531.002z"/><path data-name="Контур 1313" d="M15.665 19.881h-4.761c-.459 0-.46 0-.462-.44 0-.718-.067-.648.641-.648h9.391c.449 0 .451 0 .446.452-.007.71.07.63-.626.632h-4.63z"/><path data-name="Контур 1314" d="M15.664 21.965c-1.609 0-3.217-.007-4.826.006-.313 0-.418-.093-.406-.409.031-.781-.081-.681.681-.682q4.679-.008 9.358 0c.444 0 .445 0 .447.455 0 .7.061.633-.624.633z"/><path data-name="Контур 1315" d="M15.664 15.703c-1.608 0-3.217-.008-4.825.006-.317 0-.417-.1-.406-.41.026-.778-.074-.682.681-.682q4.679-.006 9.357 0c.447 0 .453 0 .449.451-.006.712.066.632-.626.634-1.543.006-3.086 0-4.63 0z"/><path data-name="Контур 1316" d="M15.708 12.531c1.6 0 3.2.008 4.794-.007.329 0 .436.092.423.423-.029.759.071.667-.661.667-3.142 0-6.283 0-9.425.009-.318 0-.415-.1-.4-.41.025-.783-.082-.68.675-.682 1.528-.003 3.061 0 4.594 0z"/><path data-name="Контур 1317" d="M25.056 19.356c-.261 0-.521-.005-.782 0-.2.005-.267-.085-.267-.275 0-.978-.1-.8.772-.81.358-.005.717.006 1.075 0 .212 0 .285.087.284.293-.005.95.093.781-.756.794h-.326z"/><path data-name="Контур 1318" d="M28.225 18.271c.239 0 .479.013.717 0 .263-.017.339.1.332.346-.024.872.092.725-.716.742-.38.008-.76-.005-1.141 0-.187 0-.28-.061-.278-.263.009-1.007-.1-.8.76-.823.108-.005.217-.002.326-.002z"/><path data-name="Контур 1319" d="M25.068 21.443h-.717c-.065 0-.147.018-.192-.014-.317-.225-.094-.554-.145-.832-.029-.159.066-.237.23-.236h1.662c.087 0 .192 0 .208.112a3.152 3.152 0 010 .843c-.016.128-.137.122-.233.123h-.815z"/><path data-name="Контур 1320" d="M28.181 21.444c-.239 0-.479-.012-.717 0-.264.018-.335-.1-.332-.347.011-.857-.084-.737.712-.742.369 0 .739.006 1.108 0 .214-.005.317.063.315.3-.009.945.094.779-.76.791-.106-.001-.214-.003-.326-.002z"/><path data-name="Контур 1321" d="M25.053 23.531c-.163 0-.327.01-.489 0s-.437.1-.51-.088a1.676 1.676 0 01-.016-.9c.018-.1.135-.093.22-.094h1.629c.182 0 .249.085.249.259 0 1.005.093.8-.758.827h-.326z"/><path data-name="Контур 1322" d="M28.203 23.531h-.717c-.065 0-.147.018-.192-.014-.32-.223-.1-.553-.148-.83-.029-.157.062-.239.228-.238h1.662c.086 0 .193 0 .21.11a3.152 3.152 0 010 .843c-.015.128-.135.124-.232.125H28.2z"/><path data-name="Контур 1323" d="M25.055 25.618c-.239 0-.479-.013-.717 0-.263.019-.339-.1-.335-.344.015-.869-.08-.731.713-.745.38-.007.76 0 1.141 0 .186 0 .281.063.279.263-.009 1.013.107.8-.756.825-.11.004-.216.001-.325.001z"/><path data-name="Контур 1324" d="M28.189 25.62c-.261 0-.521-.005-.782 0-.2.005-.27-.083-.269-.274.01-.991-.109-.794.767-.813.358-.008.717.006 1.075 0 .209 0 .29.08.288.288-.007.958.089.779-.755.8-.106.005-.215-.001-.324-.001z"/><path data-name="Контур 1325" d="M25.043 27.704h-.782c-.178 0-.255-.072-.254-.252.005-1.023-.1-.812.75-.832.369-.009.739 0 1.108 0 .192 0 .277.074.274.269-.017 1 .108.788-.77.819h-.326z"/><path data-name="Контур 1326" d="M28.188 27.704c-.261 0-.522-.006-.782 0-.2.006-.27-.082-.269-.273 0-.98-.1-.8.772-.812.348-.007.7 0 1.043 0 .213-.006.32.059.317.294-.014.962.1.774-.755.8h-.326z"/><path data-name="Контур 1327" d="M25.082 28.71h.815c.162 0 .244.069.237.234v.033c0 .985.1.8-.764.816-.369.005-.739 0-1.108 0-.177 0-.255-.072-.256-.252 0-1.013-.1-.817.748-.833h.326z"/><path data-name="Контур 1328" d="M28.219 28.71c.261 0 .521.005.782 0 .2-.005.273.081.27.273-.016.988.1.79-.741.813-.369.01-.739-.007-1.108 0-.212 0-.287-.084-.284-.29.012-.961-.1-.775.755-.8h.326z"/><path data-name="Контур 1329" d="M3.148 19.357h-.652a.609.609 0 01-.194-.006c-.415-.148-.141-.5-.205-.749-.04-.158-.021-.334.229-.332.554.005 1.108 0 1.662 0 .087 0 .191 0 .208.113a2.918 2.918 0 010 .843c-.017.128-.139.12-.235.121h-.815z"/><path data-name="Контур 1330" d="M6.304 18.272c.239 0 .479.014.717 0 .265-.019.337.1.332.344-.018.869.088.731-.712.743-.369.005-.739-.006-1.108 0-.213.005-.322-.059-.316-.294.022-.96-.1-.766.762-.795h.326z"/><path data-name="Контур 1331" d="M3.151 21.443h-.717c-.065 0-.147.018-.192-.014-.318-.224-.1-.554-.147-.832-.029-.159.067-.237.231-.236h1.662c.087 0 .191.006.207.115a3.189 3.189 0 010 .844c-.015.127-.136.122-.233.123h-.811z"/><path data-name="Контур 1332" d="M6.279 21.445h-.652a1.3 1.3 0 01-.163 0c-.422-.054-.216-.384-.231-.59-.012-.175-.153-.484.225-.49.554-.01 1.108 0 1.662 0 .087 0 .19 0 .207.114a2.913 2.913 0 010 .843c-.018.127-.14.119-.235.121h-.815z"/><path data-name="Контур 1333" d="M3.153 23.531h-.72c-.065 0-.147.018-.192-.013-.318-.224-.1-.553-.148-.831-.029-.156.061-.24.228-.239h1.662c.086 0 .194 0 .21.11a2.626 2.626 0 01-.008.873c-.02.1-.135.094-.22.1H3.15z"/><path data-name="Контур 1334" d="M6.271 23.53c-.261 0-.522-.006-.782 0-.2.006-.27-.082-.269-.273 0-.979-.1-.795.772-.812.347-.007.7 0 1.043 0 .213-.006.32.059.317.294-.014.961.1.774-.755.795h-.326z"/><path data-name="Контур 1335" d="M3.175 24.533h.326c.731-.006.862.163.716.9-.031.158-.125.187-.254.187H2.334c-.032 0-.074.006-.1-.011-.305-.232-.1-.557-.144-.837-.031-.187.1-.239.266-.237.277-.001.547-.003.819-.002z"/><path data-name="Контур 1336" d="M6.255 25.617h-.782c-.18 0-.253-.076-.252-.254.006-1.02-.1-.809.752-.829.369-.009.739 0 1.108 0 .194 0 .274.078.271.271-.016.99.1.787-.739.816h-.358z"/><path data-name="Контур 1337" d="M3.128 27.706a2.944 2.944 0 01-.358 0c-.218-.027-.518.121-.636-.1a1.643 1.643 0 01-.031-.834c0-.108.088-.145.182-.145h1.727a.16.16 0 01.064.008c.3.237.085.561.136.842.03.163-.078.231-.236.23h-.847z"/><path data-name="Контур 1338" d="M6.282 27.706h-.717c-.065 0-.148.017-.192-.016-.311-.226-.1-.554-.148-.833-.028-.158.069-.238.232-.237h1.662c.086 0 .192 0 .208.113a3.02 3.02 0 010 .843c-.018.126-.137.124-.234.125-.268.007-.54.005-.811.005z"/><path data-name="Контур 1339" d="M3.162 28.71h.815c.16 0 .246.065.239.232v.032c0 .991.1.8-.764.819-.358.007-.717 0-1.075 0-.207 0-.292-.077-.29-.287.011-.971-.1-.781.747-.8h.326z"/><path data-name="Контур 1340" d="M6.265 29.792c-.25 0-.5-.009-.749 0-.23.011-.3-.093-.3-.311.021-.928-.1-.755.747-.776.369-.009.739.005 1.108 0 .186 0 .281.059.279.261-.009 1.01.1.8-.759.825h-.326z"/></g></svg><svg viewBox="0 0 27.187 34.634" id="doctor" xmlns="http://www.w3.org/2000/svg"><g data-name="Сгруппировать 15" fill="#4faaed"><path data-name="Контур 1341" d="M10.24 30.322c-.255-1.055-.456-2.1-.764-3.108a1.978 1.978 0 00-2.9-1.228 2.036 2.036 0 00-1.033 2.36c.177.812.373 1.62.556 2.43.048.214.091.314.338.146a.822.822 0 011.042.061 1.1 1.1 0 01.362 1.109.845.845 0 01-.74.7.607.607 0 01-.356-.02 1.076 1.076 0 00-.669-.042.584.584 0 01-.785-.485c-.3-1.252-.656-2.5-.868-3.767a3.046 3.046 0 011.541-3.444c.136-.075.227-.146.193-.335a10.436 10.436 0 00-.633-2.331c-.175-.4-.222-.417-.556-.156a7.523 7.523 0 00-3.039 4.677 5.209 5.209 0 00-.057.9v5.317a.82.82 0 00.192.592.55.55 0 01-.4.912 6.515 6.515 0 01-1.155 0A.517.517 0 010 34.091a.5.5 0 01.413-.559c.3-.042.3-.218.3-.432 0-1.64.01-3.28 0-4.919a8.1 8.1 0 012.816-6.224 13.117 13.117 0 015.748-2.985c.058-.015.117-.029.174-.048a.484.484 0 00.087-.062c-.292-.231-.585-.449-.862-.684a6.654 6.654 0 01-1.934-2.75.665.665 0 00-.555-.468 1.939 1.939 0 01-1.642-2.2 1.871 1.871 0 011.347-1.633.439.439 0 00.338-.469 14.671 14.671 0 01.185-1.975 8.945 8.945 0 00.019-1.441c0-1.29.012-2.58-.012-3.87a1.553 1.553 0 01.5-1.22 7.625 7.625 0 014.3-1.977 13.087 13.087 0 015.237.2 6.147 6.147 0 013.168 1.709 1.731 1.731 0 01.493 1.271c-.022 1.663-.016 3.327-.01 4.991a4.036 4.036 0 00.1.641 9.619 9.619 0 01.131 1.944.437.437 0 00.367.512 2 2 0 011.454 1.863 2.053 2.053 0 01-1.367 1.9.931.931 0 01-.418.095c-.406-.058-.564.157-.705.494a6.786 6.786 0 01-2.337 2.841c-.1.07-.191.139-.285.206.046.138.16.113.246.135a13.132 13.132 0 015.334 2.637 8.239 8.239 0 013.213 6.625c-.019 1.6.011 3.207-.007 4.81 0 .377.126.5.481.455a2.074 2.074 0 01.361 0 .549.549 0 01.126 1.076 1.4 1.4 0 01-.393.041H3.732a1.916 1.916 0 01-.36-.019.54.54 0 01-.479-.583.525.525 0 01.549-.515c.6-.011 1.206-.008 1.809-.008q9.495 0 18.99.007c.326 0 .441-.082.438-.424a191.453 191.453 0 010-5.027 6.921 6.921 0 00-2.474-5.335c-.169-.158-.3-.2-.468.024a9.309 9.309 0 00-1.229 2.526c-.076.226.072.328.2.455a2.526 2.526 0 01-2.351 4.295 2.413 2.413 0 01-1.868-2.034 2.48 2.48 0 012.49-2.94.491.491 0 00.552-.383 9.088 9.088 0 011.323-2.639c.13-.169.091-.272-.078-.376a13.449 13.449 0 00-4.034-1.641c-.25-.058-.312.08-.39.256q-1.17 2.645-2.347 5.287c-.02.044-.036.089-.056.134-.112.257-.267.472-.578.47a.634.634 0 01-.583-.463q-1-2.246-2.006-4.488c-.153-.341-.307-.681-.455-1.024a.3.3 0 00-.4-.195 13.491 13.491 0 00-3.358 1.2c-.153.079-.3.155-.173.383a8.554 8.554 0 01.848 2.674c.051.261.141.361.415.373a3.041 3.041 0 012.942 2.349c.333 1.245.612 2.5.9 3.759.107.46-.007.646-.463.83a.5.5 0 00-.26.227.9.9 0 01-1.186.465 1.121 1.121 0 01-.585-1.177.915.915 0 011-.752c.053.011.122.01.233.01zm8.926-18.762a19.985 19.985 0 00-.075-2.235c-.078-.446-.1-.453-.555-.442-.672.015-1.346.028-2.017 0a2.247 2.247 0 00-1.576.439 10.076 10.076 0 01-2.861 1.442 13.218 13.218 0 01-4.29.707c-.192 0-.41-.035-.407.265a16.283 16.283 0 00.031 1.841 5.913 5.913 0 006.138 5.2 5.993 5.993 0 005.464-4.545 15.077 15.077 0 00.149-2.672zm-5.9-3.8h5.277c.294 0 .4-.089.4-.392-.012-1.349-.008-2.7 0-4.048a.7.7 0 00-.211-.514 4.284 4.284 0 00-1.8-1.1 11.778 11.778 0 00-5.6-.4 6.742 6.742 0 00-3.418 1.439.772.772 0 00-.329.642c.012 1.289 0 2.578 0 3.867 0 .493 0 .5.509.5q2.582.004 5.171.002zm.088 16.45l2.048-4.613a7.2 7.2 0 01-4.089.046zm4.229 3.366a1.34 1.34 0 001.391 1.387 1.389 1.389 0 001.4-1.394 1.409 1.409 0 00-1.405-1.4 1.393 1.393 0 00-1.387 1.403zM13.454 8.895h-.751c-.6 0-1.2.012-1.8.013-.876 0-1.753-.02-2.628.01-.25.009-.589-.21-.752.122a2.484 2.484 0 00-.137.848c-.033.323.1.414.41.417a11.548 11.548 0 003.416-.467 9.221 9.221 0 002.24-.947zm7.551 4.449a.848.848 0 00-.407-.719c-.17-.1-.261-.076-.27.144-.012.311-.051.621-.061.932 0 .145-.161.349.014.423s.355-.092.493-.227a.9.9 0 00.23-.557zm-14.738.055c-.017-.322-.031-.62-.05-.918 0-.068.014-.167-.073-.18a.3.3 0 00-.188.078.828.828 0 00-.148 1.126c.094.128.219.28.371.242.177-.049.049-.251.087-.352z"/><path data-name="Контур 1342" d="M15.929 4.381c0 .918-.193 1.134-1.117 1.227-.209.021-.251.121-.264.3-.055.83-.324 1.08-1.154 1.078a2.216 2.216 0 01-.682-.035.918.918 0 01-.638-.944c0-.287-.081-.4-.389-.406a.909.909 0 01-1-1.016v-.47a.893.893 0 01.958-.984c.339 0 .426-.121.431-.442a.89.89 0 01.991-.948h.506a.91.91 0 01.978.964c.006.183-.054.387.253.42.948.102 1.13.316 1.127 1.256zm-2.893.964v.362c-.01.2.051.321.282.317.211 0 .268-.114.265-.3v-.759c-.006-.227.094-.333.324-.327.253.007.506 0 .759 0 .184 0 .3-.051.3-.263 0-.23-.113-.29-.315-.285-.253.006-.506 0-.759 0-.213 0-.308-.1-.3-.307 0-.253-.006-.506 0-.759 0-.2-.056-.32-.286-.315-.213 0-.266.117-.262.3v.8a.247.247 0 01-.286.286h-.76c-.186 0-.331.019-.336.264-.005.265.15.293.351.284h.326c.694-.008.694-.008.696.703z"/></g></svg><svg viewBox="0 0 6.619 9.365" id="map-mark-icon" xmlns="http://www.w3.org/2000/svg"><g data-name="Сгруппировать 1"><path data-name="Контур 1" d="M3.31 4.827a1.506 1.506 0 111.5-1.506 1.5 1.5 0 01-1.5 1.506M3.31 0A3.321 3.321 0 000 3.334c0 1.739 1.5 3.983 2.5 5.075.374.408.809.957.809.957s.468-.552.869-.972c1-1.047 2.441-3.148 2.441-5.059A3.322 3.322 0 003.309.001"/></g></svg><svg viewBox="0 0 20.092 20.092" id="search-icon" xmlns="http://www.w3.org/2000/svg"><g data-name="3" opacity=".5" transform="translate(1 1)"><circle cx="6.875" cy="6.875" r="6.875"/><path d="M11.785 11.785l5.893 5.893" fill-rule="evenodd"/></g></svg><svg viewBox="0 0 28 28" id="shedule" xmlns="http://www.w3.org/2000/svg"><g data-name="Сгруппировать 16" fill="#4faaed"><path data-name="Контур 1343" d="M21.333 0h2.842a.77.77 0 01.353.745c-.018.372 0 .745-.005 1.118 0 .425 0 .42.423.423a3.046 3.046 0 012.28.933A3.314 3.314 0 0128 4.7v20.931c-.029.086-.06.172-.087.259A2.9 2.9 0 0125.054 28H2.899a2.888 2.888 0 01-2.9-2.874V5.184a2.744 2.744 0 01.546-1.656 2.969 2.969 0 012.466-1.239c.481-.011.483-.013.485-.5 0-.355.013-.711 0-1.065a.753.753 0 01.352-.72H6.69a.771.771 0 01.353.746c-.019.381 0 .764-.005 1.146s.01.395.4.394h13.231c.231 0 .329-.069.321-.313-.014-.418.01-.837-.006-1.255A.758.758 0 0121.333 0zm-7.321 8.2h-12.4c-.371 0-.376 0-.376.388V25.142a1.64 1.64 0 001.552 1.606c.673.02 1.347.01 2.021.01h20.297a1.657 1.657 0 001.513-.951 2.374 2.374 0 00.167-1.228V8.626c0-.416-.015-.43-.431-.43zm0-1.23H26.47c.134 0 .31.024.309-.174a8.757 8.757 0 00-.049-1.988 1.775 1.775 0 00-2.041-1.291c-.145.012-.165.117-.165.236v.9a.554.554 0 01-.594.6q-1.175.011-2.349 0a.554.554 0 01-.586-.584c-.009-.273-.017-.547 0-.819s-.078-.347-.344-.345c-1.175.012-2.349 0-3.524 0H7.346c-.247 0-.319.091-.307.323.014.282.007.565 0 .847a.543.543 0 01-.563.576q-1.2.014-2.4 0a.55.55 0 01-.562-.58 9.393 9.393 0 010-.628c0-.556.005-.556-.555-.531a1.705 1.705 0 00-1.708 1.782v1.229c0 .446 0 .443.431.443zM4.727 2.62v.708c0 .778-.084.694.728.708.256 0 .359-.084.354-.347a71.377 71.377 0 010-2.017c0-.46.005-.46-.468-.463h-.245c-.337 0-.363.025-.364.351-.005.356-.005.711-.005 1.064zm17.489-.029v.736c0 .779-.084.7.726.7.322 0 .351-.031.351-.368V1.751c0-.541.007-.541-.519-.547h-.3c-.187-.007-.26.087-.258.267.003.379 0 .752 0 1.124z"/><path data-name="Контур 1344" d="M7.033 11.678v1.666c0 .46-.207.664-.671.665H3.004a.6.6 0 01-.686-.64q-.022-1.72 0-3.44a.6.6 0 01.642-.637q1.706-.02 3.413 0a.609.609 0 01.661.695c.002.565-.001 1.126-.001 1.691zm-2.355-1.165c-.273 0-.547.009-.819 0-.231-.01-.329.071-.324.313.011.555.007 1.111 0 1.666 0 .193.066.29.266.289h1.748c.167 0 .255-.073.255-.246V10.76c0-.19-.1-.253-.277-.248-.285.005-.567 0-.849 0z"/><path data-name="Контур 1345" d="M24.521 11.654v1.693c0 .446-.208.655-.652.656q-1.693.005-3.386 0a.6.6 0 01-.679-.648 143.815 143.815 0 010-3.413.6.6 0 01.652-.656q1.706-.019 3.413 0c.442.005.651.253.653.7.002.562-.001 1.117-.001 1.668zm-3.494-.023v.9c0 .159.072.238.229.238h1.8a.208.208 0 00.235-.236v-1.8c0-.158-.081-.228-.24-.227q-.888.005-1.775 0c-.173 0-.248.075-.246.247.001.301-.003.591-.003.882z"/><path data-name="Контур 1346" d="M13.989 17.461v-1.693a.584.584 0 01.62-.642q1.72-.011 3.44 0a.6.6 0 01.652.626q.026 1.733 0 3.467a.6.6 0 01-.673.631q-1.693.009-3.386 0a.6.6 0 01-.653-.669v-1.72zm2.377 1.157h.873c.171 0 .248-.079.247-.249v-1.746c0-.2-.09-.271-.284-.269q-.845.01-1.691 0c-.21 0-.3.085-.293.292q.007.846 0 1.691c0 .2.08.283.276.28.295-.003.583.001.874.001z"/><path data-name="Контур 1347" d="M10.504 20.967h1.693a.6.6 0 01.679.672q.009 1.679 0 3.359a.6.6 0 01-.649.684q-1.706.024-3.413 0a.618.618 0 01-.664-.7q-.009-1.679 0-3.359a.594.594 0 01.662-.657c.563-.001 1.127.001 1.692.001zm0 3.5h.873c.179 0 .272-.065.271-.254q-.005-.873 0-1.746c0-.178-.07-.271-.258-.269q-.859.006-1.719 0c-.188 0-.287.069-.285.272v1.746c0 .173.078.249.247.248.286-.003.577-.002.868-.002z"/><path data-name="Контур 1348" d="M12.878 17.479c0 .555.005 1.11 0 1.665a.634.634 0 01-.712.707q-1.679.008-3.357 0a.618.618 0 01-.658-.649q-.012-1.706 0-3.412a.615.615 0 01.67-.666q1.706-.014 3.412 0a.619.619 0 01.644.662c.005.565.001 1.129.001 1.693zm-1.235.034v-.9c0-.165-.054-.258-.234-.257h-1.8c-.161 0-.23.075-.229.233v1.8c0 .16.075.23.233.229h1.8c.16 0 .231-.075.229-.233-.003-.285-.003-.585-.003-.872z"/><path data-name="Контур 1349" d="M16.34 14.009h-1.692a.586.586 0 01-.656-.658V9.995a.622.622 0 01.681-.708c1.119-.014 2.237-.011 3.356 0a.645.645 0 01.685.692q.014 1.664 0 3.329a.625.625 0 01-.711.7c-.556.004-1.111.001-1.663.001zm.023-3.5h-.873c-.183 0-.268.069-.266.256q.006.873 0 1.747c0 .181.073.267.26.266h1.719c.208 0 .3-.075.292-.289a61.565 61.565 0 010-1.719c0-.184-.067-.268-.256-.263-.299.015-.588.006-.879.006z"/><path data-name="Контур 1350" d="M4.694 20.963h1.664a.593.593 0 01.675.666v3.356a.618.618 0 01-.685.7q-1.678.016-3.356 0a.646.646 0 01-.683-.694 184.708 184.708 0 010-3.329.632.632 0 01.719-.7c.556-.002 1.111.001 1.666.001zm-.046 3.5c.282 0 .565-.011.846 0 .243.013.319-.093.314-.323a48.64 48.64 0 010-1.665c0-.192-.067-.287-.269-.285H3.793c-.166 0-.254.064-.253.242v1.774c0 .191.085.257.267.253.277-.002.556.003.841.003z"/><path data-name="Контур 1351" d="M10.5 14.01H8.836a.612.612 0 01-.687-.694q-.007-1.651 0-3.3a.639.639 0 01.7-.725q1.664-.017 3.328 0a.639.639 0 01.7.723q.009 1.664 0 3.328a.622.622 0 01-.688.671h-1.692zm1.141-2.371c0-.282-.006-.564 0-.845.005-.19-.056-.285-.265-.283-.582.007-1.163 0-1.745 0-.189 0-.258.081-.257.264q.009.872 0 1.745c0 .187.077.263.26.261.582 0 1.163-.007 1.745 0 .189 0 .259-.081.254-.265.002-.294.007-.585.007-.876z"/><path data-name="Контур 1352" d="M7.036 17.487v1.664a.632.632 0 01-.71.7H3.079c-.53 0-.766-.234-.769-.77q-.009-1.6 0-3.192c0-.537.239-.769.767-.771h3.219c.516 0 .735.216.739.727.005.55.001 1.095.001 1.642zm-2.37-1.126h-.872c-.164 0-.259.052-.258.234q.006.9 0 1.8c0 .161.073.231.232.23h1.8c.161 0 .23-.073.23-.231v-1.772c0-.187-.084-.259-.267-.255-.283-.001-.574-.007-.865-.007z"/><path data-name="Контур 1353" d="M24.524 17.503v1.61c0 .5-.233.742-.727.743h-3.192c-.57 0-.8-.223-.807-.788q-.008-1.582 0-3.165c0-.552.237-.78.784-.781h3.192c.533 0 .746.213.749.744.004.546.001 1.092.001 1.637zm-3.5-.019c0 .291.006.582 0 .872 0 .184.066.266.255.264q.886-.009 1.772 0c.18 0 .238-.087.237-.253v-1.745c0-.183-.075-.262-.262-.261q-.872.007-1.745 0c-.207 0-.269.095-.264.285.013.275.008.556.008.838z"/></g></svg><svg viewBox="0 0 8.915 9.578" id="tel-icon" xmlns="http://www.w3.org/2000/svg"><path data-name="Контур 1475" d="M6.205 9.578a3.569 3.569 0 01-1.58-.384 8.656 8.656 0 01-2.73-2.211A8.26 8.26 0 01.276 4.402a3.677 3.677 0 01.086-2.991 3.627 3.627 0 011.253-1.3.558.558 0 01.716.033 3.691 3.691 0 011.2 1.933.8.8 0 01-.307.83c-.184.15-.369.3-.554.446a.8.8 0 00-.313.979 2.054 2.054 0 00.224.5 6.81 6.81 0 001.746 1.94 2.539 2.539 0 00.243.164.844.844 0 001.155-.144c.121-.119.234-.247.357-.366a.983.983 0 011.237-.19 5.147 5.147 0 011.408 1.2.654.654 0 01-.091 1 4.047 4.047 0 01-1.2.908 3.455 3.455 0 01-1.231.234z"/></svg></svg>