<svg xmlns="http://www.w3.org/2000/svg" width="37.505" height="53.221" viewBox="0 0 37.505 53.221">
  <g id="Сгруппировать_9823" data-name="Сгруппировать 9823" transform="translate(-808.132 -1169.279)">
    <path id="Контур_3930" data-name="Контур 3930" d="M832.367,1186.718a3.508,3.508,0,0,0,1.612-3.145,3.315,3.315,0,0,0-.455-1.84,9.731,9.731,0,0,0-3.122-3.156.378.378,0,0,0-.517.041c-.693.557-1.405,1.091-2.119,1.624-1.969,1.47-4.089,2.741-6.045,4.226a13.775,13.775,0,0,0-3.455,3.173c-1.153,1.762-1.161,2.784.255,4.171a11.111,11.111,0,0,0,3.193,2.011.572.572,0,0,0,.639-.018c1.282-.86,2.581-1.7,3.851-2.57C828.3,1189.788,830.3,1188.2,832.367,1186.718Z" transform="translate(2.085 2.082)" fill="#65bc29"/>
    <path id="Контур_3931" data-name="Контур 3931" d="M826.885,1169.279a18.849,18.849,0,0,0-18.753,18.945c0,9.883,8.493,22.632,14.164,28.839,2.119,2.316,4.586,5.438,4.586,5.438s2.651-3.14,4.925-5.524c5.667-5.948,13.829-17.89,13.829-28.752A18.849,18.849,0,0,0,826.885,1169.279Zm-11.035,15.353a.929.929,0,0,1-.838-1.2c.027-.112.062-.22.1-.329.258-.795.618-.891,1.248-.341.17.148.131.295.047.458-.05.1-.149.2-.036.308s.245.06.362,0a2.62,2.62,0,0,0,.658-.48,21.647,21.647,0,0,0,4.552-5.773c.1-.191.216-.261.408-.128.012.008.026.014.038.022.815.512.868.288.381,1.236A46.432,46.432,0,0,0,820.54,1183c-.063.168-.211.356-.052.519.178.183.379.025.555-.053s.328-.177.489-.268c.077-.044.16-.087.24-.025s.062.153.029.236a1.224,1.224,0,0,1-.423.628,4.513,4.513,0,0,1-1.028.536.868.868,0,0,1-1.188-.984,6.955,6.955,0,0,1,.773-1.942c.024-.048.042-.1.062-.147-.676.647-1.257,1.354-1.924,1.982a6.315,6.315,0,0,1-1.227.939A1.583,1.583,0,0,1,815.85,1184.632Zm16.776,19.212c-.489.019-.979,0-1.665,0a3.005,3.005,0,0,1-2.7-.915,22.256,22.256,0,0,0-4.164-2.506.47.47,0,0,0-.548.082,7.544,7.544,0,0,0-2.752,3.063.457.457,0,0,1-.486.277c-.447,0-.893-.011-1.34,0-.351.01-.472-.135-.392-.469a6.119,6.119,0,0,1,1.535-2.88,8.171,8.171,0,0,1,1.2-1.106c.213-.147.284-.236-.01-.4a6.355,6.355,0,0,1-3.076-4.494,10.107,10.107,0,0,1,.82-6.628,6.813,6.813,0,0,1,1.542-2.049,71.161,71.161,0,0,1,8.756-6.671c.262-.177.513-.372.782-.537s.252-.262-.018-.4c-.807-.412-1.605-.838-2.407-1.256a2.081,2.081,0,0,1-.2-.093c-.09-.06-.238-.106-.188-.247.046-.125.193-.129.3-.109a761.089,761.089,0,0,1,2.373-.013,2.373,2.373,0,0,1,1.664.463.619.619,0,0,0,.888-.036,1.761,1.761,0,0,1,1.391-.433c.691.03,1.382.006,2.074.009.14,0,.316-.031.39.12s-.087.252-.18.352a11.491,11.491,0,0,1-1.613,1.42c-.231.17-.246.3-.008.489a8.63,8.63,0,0,1,2.248,2.573,6.511,6.511,0,0,1,.78,2.645,18.468,18.468,0,0,1-.018,3.376,7,7,0,0,1-2.905,5.226c-1.476,1.1-3.043,2.059-4.542,3.124q-1.948,1.382-3.92,2.739c-.306.211-.247.29.061.429a20.838,20.838,0,0,1,6.264,4.193,2.762,2.762,0,0,1,.238.247C833,1203.682,832.944,1203.832,832.625,1203.844Zm6.131-7.213a5.093,5.093,0,0,1-3.243,4.2,2.92,2.92,0,0,1-2.306-.13.9.9,0,0,0-.826.029,1.878,1.878,0,0,1-1,.212.631.631,0,0,1-.648-.568c-.07-.342.167-.491.427-.606a2.233,2.233,0,0,1,.989-.281,1.175,1.175,0,0,0,1.111-.736,26.539,26.539,0,0,1,1.814-3.011c.133-.169.267-.336.4-.5.336-.415.485-.43.939-.126.193.129.255.271.1.459-.86,1.032-1.322,2.306-2.1,3.391a4.434,4.434,0,0,1-.569.7c-.217.2-.119.329.118.38a1.752,1.752,0,0,0,1.369-.245,4.293,4.293,0,0,0,2.178-4.051,1.427,1.427,0,0,0-1-1.332,1.55,1.55,0,0,0-1.655.29c-.286.28-.567.565-.829.872-.364.428-.6-.061-.876-.18-.254-.109-.233-.355-.065-.54.758-.826,1.541-1.614,2.759-1.47A2.751,2.751,0,0,1,838.757,1196.631Z" fill="#65bc29"/>
  </g>
</svg>
